<svg id="add-24px" xmlns="http://www.w3.org/2000/svg" width="24" height="24" viewBox="0 0 24 24">
  <g id="Grupo_1" data-name="Grupo 1">
    <rect id="Rectángulo_1" data-name="Rectángulo 1" width="24" height="24" fill="none"/>
  </g>
  <g id="Grupo_3" data-name="Grupo 3">
    <g id="Grupo_2" data-name="Grupo 2">
      <path id="Trazado_1" data-name="Trazado 1" d="M18,13H13v5a1,1,0,0,1-1,1h0a1,1,0,0,1-1-1V13H6a1,1,0,0,1-1-1H5a1,1,0,0,1,1-1h5V6a1,1,0,0,1,1-1h0a1,1,0,0,1,1,1v5h5a1,1,0,0,1,1,1h0A1,1,0,0,1,18,13Z" fill="#21c063"/>
    </g>
  </g>
</svg>
