<svg xmlns="http://www.w3.org/2000/svg" width="40.316" height="23.868" viewBox="0 0 40.316 23.868">
  <g id="logo-min" transform="translate(0)">
    <path id="Trazado_4" data-name="Trazado 4" d="M9.15,12.458l-.464.592c.147-.19.306-.391.463-.592M36.288,0a4,4,0,0,0-4.026,3.967,4.027,4.027,0,0,0,8.054,0A4,4,0,0,0,36.288,0M.564,8.643l.178.2a.852.852,0,0,0,1.148.01.794.794,0,0,0,.21-1.1l0,0-.6-.709a.824.824,0,0,0-1.137.056A.769.769,0,0,0,.142,8.169Zm6.9,4.3c.34-.434.94-1.2,1.44-1.83L6.915,8.527a.826.826,0,0,0-1.184-.182.816.816,0,0,0-.155,1.118L4.4,7.857a.8.8,0,0,0-1.143.014A.83.83,0,0,0,3.05,9l2.11,2.77a.81.81,0,0,1-.339.8.876.876,0,0,1-1.112-.079L2.5,11l-.372-.447c-.016-.018-.037-.032-.056-.05A.869.869,0,0,0,.98,10.53a.709.709,0,0,0-.223,1.03L1.6,12.6a6.568,6.568,0,0,0,3.791,1.377A2.421,2.421,0,0,0,7.47,12.943m1.216.107-.1.133.1-.133m0,0-.1.133.1-.133m.865-1.1-.4.51.4-.51m0,0-.4.51.4-.51" fill="#21c063" fill-rule="evenodd"/>
    <path id="Trazado_5" data-name="Trazado 5" d="M17.735,13.547h0l-.123-.217h0c-.95-1.669-3.048-5.357-3.371-5.934C14.018,7,13.93,7,13.87,7a1.209,1.209,0,0,0-.475.1q-1.93,2.42-3.845,4.852v0c-.458.581-.963,1.223-1.262,1.608a3.735,3.735,0,0,1-1.258,1.063l-.055.029c-.063.03-.123.05-.184.076a3.514,3.514,0,0,1-.346.117l-.063.016q-.093.024-.187.045c-.022.005-.043.01-.064.013-.048.009-.1.015-.146.023-.073.01-.143.023-.216.029s-.122.007-.183.01-.134.007-.2.007-.131,0-.2-.007a6.762,6.762,0,0,1-2-.4q1.287,1.567,2.528,3.172a8.213,8.213,0,0,0,1.929,1.91c2.173,1.333,4.518.222,5.962-1.166l4.42-4.418-.294-.529Zm5.626-8.13-1.025-1.7c-.02-.03-.042-.054-.06-.081q-.1-.143-.21-.279c-.006-.008-.011-.017-.018-.025a4.294,4.294,0,0,0-.555-.405,4.228,4.228,0,0,0-5.493.9V3.829L14.232,6.046l-.2.256c.212-.266.46-.187.7.042a2.942,2.942,0,0,1,.393.53c.082.132.16.265.228.4l.072.137c.028.055.054.11.077.16l.116.21c.877,1.652,3.159,5.52,3.174,5.547v0l.179.307.778,1.339,0,.01-.014.013c.035.051.073.1.11.153a2.336,2.336,0,0,0,2.05.95,2.682,2.682,0,0,0,2.47-1.35c.738-1.138,1.706-2.779,2.317-3.83l-3.319-5.5Z" fill="#21c063" fill-rule="evenodd"/>
    <path id="Trazado_6" data-name="Trazado 6" d="M32.153,7.933a4.222,4.222,0,0,0-3.312,1.562,4.112,4.112,0,0,0-.5.736L28,10.805,27.108,12.3,25.3,15.176l-.071.112a5.437,5.437,0,0,1-.8.93,3.527,3.527,0,0,1-1.28.718,4.17,4.17,0,0,1-1.259.169,4.232,4.232,0,0,1-1.042-.125l.675,1.232.654,1.135h0c.027.044.046.087.072.132l.22.417c.03.066.054.128.08.191l.5.9a5.189,5.189,0,0,0,2.21,2.27l.014,0c.118.07.24.138.366.2a4.222,4.222,0,0,0,5.544-1.786l4.567-7.887c.047-.086.083-.176.121-.264a3.676,3.676,0,0,0,.423-1.7,4.015,4.015,0,0,0-4.136-3.882" fill="#21c063" fill-rule="evenodd"/>
  </g>
</svg>
